<?xml version="1.0" standalone="no"?>
<svg xmlns="http://www.w3.org/2000/svg" viewBox="0 0 256.584 27.965" width="256.584" height="27.965"><g fill="#ff8888" color="#ff8888" transform="translate(0, 0) scale(0.5178572)"><svg width="56.0" height="54.0" x="0.0" y="0.0" viewBox="0 0 56 54"><path fill="currentColor" fill-rule="evenodd" d="M20.14 11.806c.69 0 1.248.302 1.248.676 0 .373-.559.676-1.248.676-.69 0-1.248-.303-1.248-.676 0-.374.559-.676 1.248-.676m20.405 21.523l.534.01c5.6.225 9.9 4.467 9.9 10.137 0 0 .297 5.7-3.224 9.674-.285.323-.808.047-.72-.374.324-1.532.214-3.749-2.713-4.567-2.838-.792-5.67-.042-8.392.814-5.072 1.593-10.064 4.536-15.43 4.937-2.73.204-5.532-.369-7.9-1.742-4.398-2.548-6.242-7.656-6.572-12.497-.023-.334-.097-1.047.156-1.103.367-.077.692.66.855.874.337.445.72.855 1.141 1.221 2.783 2.425 6.471 2.177 9.853 1.42 3.721-.832 6.965-2.528 10.252-4.388 3.181-1.8 6.462-3.691 10.13-4.252.88-.135 1.774-.19 2.664-.154zm1.404 5.878c-1.67-.286-3.379-.148-5.01.232-1.627.412-3.168 1.058-4.6 1.858a29.406 29.406 0 0 0-4.054 2.738c1.534-.572 3.004-1.25 4.477-1.864 1.477-.602 2.954-1.16 4.47-1.518a16.128 16.128 0 0 1 4.608-.477 13.26 13.26 0 0 1 4.59 1.103c-1.223-1.096-2.818-1.798-4.481-2.072zM21.752 0c1.066 0 3.484 3.12 3.484 3.12S32.44 7.49 35.533 15.653c3.094 8.165-3.068 15.965-3.068 15.965a21.32 21.32 0 0 0 .759-4.477c.047-.834.038-1.671-.026-2.503-.022-.278-.138-.71-.229-1.134-.056-.262-.4-.307-.537-.077a4.679 4.679 0 0 1-1.004 1.177c-.049-1.565-.206-3.147-.744-4.618-.462-1.262-1.228-2.444-2.29-3.253a.252.252 0 0 0-.401.243 4.672 4.672 0 0 1-.116 2.121c-1.659-1.66-3.973-2.53-6.294-2.886-1.924-.295-3.877-.266-5.827-.224-.377.008-.494.51-.164.692 1.58.875 3.253 1.227 5.08 1.589 2.24.444 4.149 1.495 5.5 3.366 2.03 2.809 1.345 9.595.963 12.34a2.533 2.533 0 0 1-1.21 1.827c-2.498 1.493-5.553 2.77-9.429 3.567-1.91.392-3.986.347-5.839-.3-.903-.315-1.758-.85-2.29-1.646-.653-.976-.749-2.253-.45-3.389.3-1.136.96-2.146 1.717-3.044 2.322-2.753 5.518-4.529 8.224-6.853 1.123-.964 2.342-2.005 2.822-3.471.023-.068.295-1.26.084-1.267-3.207-.114-8.018-1.093-9.7-4.246-.1-.185-.188-.397-.136-.6.065-.257.325-.407.56-.528 2.168-1.113 4.257-2.135 6.102-3.767a19.55 19.55 0 0 0 2.2-2.29c.297-.364 1.429-1.346 1.39-1.83 0-.001-.494-6.137.572-6.137z"></path></svg></g><line x1="41" y1="1" x2="41" y2="26.965" stroke="#0b0cac" stroke-linecap="round"></line><path fill="#0b0cac" fill-rule="nonzero" d="M9.31 5.57Q8.57 5.57 8.16 5.11Q7.75 4.66 7.75 3.92Q7.75 3.19 8.06 2.78L8.06 2.78Q7.30 2.06 5.95 2.06L5.95 2.06Q3.98 2.06 2.98 3.71Q1.97 5.35 1.97 8.54L1.97 8.54Q1.97 14.95 5.95 14.95L5.95 14.95Q6.91 14.95 7.91 14.48Q8.90 14.02 9.60 13.25L9.60 13.25Q10.34 13.85 10.56 15.14L10.56 15.14Q8.42 16.73 5.95 16.73L5.95 16.73Q2.81 16.73 1.40 14.78Q0 12.84 0 8.74L0 8.74Q0 0.65 5.95 0.65L5.95 0.65Q7.75 0.65 9.16 1.60Q10.56 2.54 10.56 4.06Q10.56 5.57 9.31 5.57L9.31 5.57ZM22.18 7.97L22.18 7.97L22.15 10.30Q22.15 12.84 22.44 14.98L22.44 14.98L23.28 15.05Q23.33 15.43 23.33 15.71Q23.33 15.98 23.26 16.39L23.26 16.39Q22.42 16.37 21.28 16.37Q20.14 16.37 19.32 16.39L19.32 16.39Q19.25 16.03 19.25 15.76Q19.25 15.48 19.30 15.05L19.30 15.05L20.14 14.98Q20.33 12.38 20.33 10.37Q20.33 8.35 19.98 7.39Q19.63 6.43 18.58 6.43L18.58 6.43Q17.23 6.43 15.70 7.97L15.70 7.97L15.70 10.22Q15.70 13.18 15.91 14.98L15.91 14.98L16.80 15.05Q16.85 15.43 16.85 15.71Q16.85 15.98 16.78 16.39L16.78 16.39Q15.94 16.37 14.83 16.37Q13.73 16.37 12.91 16.39L12.91 16.39Q12.84 16.03 12.84 15.76Q12.84 15.48 12.89 15.05L12.89 15.05L13.73 14.98Q13.94 12.72 13.94 10.80L13.94 10.80L13.94 7.51Q13.94 3.19 13.82 1.63L13.82 1.63L12.86 1.56Q12.79 1.25 12.79 0.83Q12.79 0.41 12.82 0.22L12.82 0.22Q15 0.10 15.94 0L15.94 0L16.03 0.12Q15.70 2.98 15.70 6.55L15.70 6.55Q16.42 5.83 17.42 5.36Q18.43 4.90 19.34 4.90L19.34 4.90Q22.18 4.90 22.18 7.97ZM29.57 11.04L29.57 11.04Q28.39 11.04 27.38 10.92L27.38 10.92Q27.43 15.00 30.10 15.00L30.10 15.00Q31.44 15.00 33.07 13.51L33.07 13.51Q33.77 14.23 33.96 15.41L33.96 15.41Q31.99 16.73 29.78 16.73Q27.58 16.73 26.50 15.20Q25.42 13.68 25.42 10.73Q25.42 7.78 26.63 6.34Q27.84 4.90 30.07 4.90L30.07 4.90Q31.73 4.90 32.81 5.90Q33.89 6.91 33.90 8.38Q33.91 9.84 33.65 10.46L33.65 10.46Q31.85 11.04 29.57 11.04ZM29.90 6.24L29.90 6.24Q27.67 6.24 27.41 9.53L27.41 9.53Q28.49 9.65 29.78 9.65Q31.08 9.65 31.80 9.41L31.80 9.41Q31.90 8.81 31.90 8.52L31.90 8.52Q31.90 7.46 31.36 6.85Q30.82 6.24 29.90 6.24ZM43.46 9.86L43.46 9.86Q43.46 6.43 41.42 6.43L41.42 6.43Q39.96 6.43 38.64 7.99L38.64 7.99L38.64 14.45Q39.74 15.00 40.97 15.00L40.97 15.00Q43.46 15.00 43.46 9.86ZM38.64 6.53L38.64 6.53Q40.32 4.90 42.02 4.90Q43.73 4.90 44.62 6.29Q45.50 7.68 45.50 10.18L45.50 10.18Q45.50 13.56 44.34 15.14Q43.18 16.73 40.68 16.73L40.68 16.73Q39.12 16.73 36.53 16.10L36.53 16.10Q36.91 13.75 36.91 8.47Q36.91 3.19 36.79 1.63L36.79 1.63L35.83 1.56Q35.76 1.27 35.76 0.82Q35.76 0.36 35.78 0.22L35.78 0.22Q37.92 0.12 38.90 0L38.90 0L39 0.12Q38.66 3.00 38.64 6.53ZM51.94 11.04L51.94 11.04Q50.76 11.04 49.75 10.92L49.75 10.92Q49.80 15.00 52.46 15.00L52.46 15.00Q53.81 15.00 55.44 13.51L55.44 13.51Q56.14 14.23 56.33 15.41L56.33 15.41Q54.36 16.73 52.15 16.73Q49.94 16.73 48.86 15.20Q47.78 13.68 47.78 10.73Q47.78 7.78 49.00 6.34Q50.21 4.90 52.44 4.90L52.44 4.90Q54.10 4.90 55.18 5.90Q56.26 6.91 56.27 8.38Q56.28 9.84 56.02 10.46L56.02 10.46Q54.22 11.04 51.94 11.04ZM52.27 6.24L52.27 6.24Q50.04 6.24 49.78 9.53L49.78 9.53Q50.86 9.65 52.15 9.65Q53.45 9.65 54.17 9.41L54.17 9.41Q54.26 8.81 54.26 8.52L54.26 8.52Q54.26 7.46 53.72 6.85Q53.18 6.24 52.27 6.24ZM59.50 13.27L59.50 13.27L59.52 10.70Q59.52 8.57 59.33 6.60L59.33 6.60L58.44 6.53Q58.37 6.14 58.37 5.74Q58.37 5.33 58.39 5.18L58.39 5.18Q59.62 5.16 61.37 4.97L61.37 4.97L61.49 5.09Q61.27 6.50 61.27 10.15L61.27 10.15L61.27 11.28Q61.27 13.30 61.64 14.15Q62.02 15.00 62.90 15.00L62.90 15.00Q64.15 15.00 65.62 13.54L65.62 13.54Q65.66 12.98 65.66 11.40L65.66 11.40L65.66 10.70Q65.66 8.57 65.47 6.60L65.47 6.60L64.58 6.53Q64.51 6.12 64.51 5.72Q64.51 5.33 64.54 5.18L64.54 5.18Q65.76 5.16 67.51 4.97L67.51 4.97L67.63 5.09Q67.42 6.50 67.42 10.15L67.42 10.15L67.42 10.92Q67.42 12.89 67.63 14.76L67.63 14.76L68.52 14.81Q68.57 15.34 68.57 15.59Q68.57 15.84 68.50 16.20L68.50 16.20Q67.56 16.25 65.88 16.44L65.88 16.44Q65.69 16.01 65.59 15.24L65.59 15.24Q63.79 16.73 62.28 16.73Q60.77 16.73 60.13 15.89Q59.50 15.05 59.50 13.27ZM70.44 15.05L71.28 14.98Q71.50 12.58 71.50 10.57Q71.50 8.57 71.30 6.60L71.30 6.60L70.42 6.53Q70.34 6.14 70.34 5.74Q70.34 5.33 70.37 5.18L70.37 5.18Q71.59 5.16 73.34 4.97L73.34 4.97L73.46 5.09Q73.44 5.23 73.32 6.50L73.32 6.50Q73.87 5.81 74.60 5.35Q75.34 4.90 76.04 4.90Q76.75 4.90 77.28 5.40Q77.81 5.90 77.81 6.72L77.81 6.72Q77.81 8.06 76.68 8.06L76.68 8.06Q76.03 8.06 75.65 7.64Q75.26 7.22 75.26 6.53L75.26 6.53Q75.22 6.50 75.10 6.50L75.10 6.50Q74.21 6.50 73.27 7.85L73.27 7.85Q73.25 8.52 73.25 10.86Q73.25 13.20 73.46 14.98L73.46 14.98L74.35 15.05Q74.40 15.58 74.40 15.78Q74.40 15.98 74.33 16.39L74.33 16.39Q73.66 16.37 72.36 16.37Q71.06 16.37 70.46 16.39L70.46 16.39Q70.39 16.03 70.39 15.71Q70.39 15.38 70.44 15.05L70.44 15.05ZM89.18 2.28L88.27 2.35Q88.10 4.30 88.10 8.38Q88.10 12.46 88.32 14.98L88.32 14.98L89.18 15.05Q89.23 15.43 89.23 15.71Q89.23 15.98 89.16 16.39L89.16 16.39Q88.32 16.37 87.22 16.37Q86.11 16.37 85.30 16.39L85.30 16.39Q85.22 16.03 85.22 15.76Q85.22 15.48 85.27 15.05L85.27 15.05L86.11 14.98Q86.30 12.38 86.30 8.36Q86.30 4.34 86.09 2.35L86.09 2.35L85.27 2.28Q85.22 1.90 85.22 1.62Q85.22 1.34 85.30 0.94L85.30 0.94Q86.14 0.96 87.24 0.96Q88.34 0.96 89.16 0.94L89.16 0.94Q89.23 1.30 89.23 1.57Q89.23 1.85 89.18 2.28L89.18 2.28ZM101.66 7.97L101.66 7.97L101.64 10.30Q101.64 12.82 101.93 14.98L101.93 14.98L102.77 15.05Q102.82 15.58 102.82 15.78Q102.82 15.98 102.74 16.39L102.74 16.39Q102.07 16.37 100.73 16.37Q99.38 16.37 98.81 16.39L98.81 16.39Q98.74 16.03 98.74 15.71Q98.74 15.38 98.78 15.05L98.78 15.05L99.62 14.98Q99.82 12.17 99.82 10.16Q99.82 8.16 99.42 7.30Q99.02 6.43 98.06 6.43L98.06 6.43Q96.77 6.43 95.21 7.99L95.21 7.99Q95.18 8.62 95.18 10.91Q95.18 13.20 95.40 14.98L95.40 14.98L96.29 15.05Q96.34 15.58 96.34 15.78Q96.34 15.98 96.26 16.39L96.26 16.39Q95.59 16.37 94.30 16.37Q93 16.37 92.40 16.39L92.40 16.39Q92.33 16.03 92.33 15.71Q92.33 15.38 92.38 15.05L92.38 15.05L93.22 14.98Q93.43 12.58 93.43 10.57Q93.43 8.57 93.24 6.60L93.24 6.60L92.35 6.53Q92.28 6.12 92.28 5.72Q92.28 5.33 92.30 5.18L92.30 5.18Q93.53 5.16 95.28 4.97L95.28 4.97L95.40 5.09Q95.35 5.38 95.26 6.53L95.26 6.53Q96 5.78 96.98 5.34Q97.97 4.90 98.83 4.90L98.83 4.90Q101.66 4.90 101.66 7.97ZM111.91 9.00Q111.24 9.00 110.87 8.58Q110.50 8.16 110.50 7.55Q110.50 6.94 110.66 6.62L110.66 6.62Q110.14 6.22 109.42 6.22L109.42 6.22Q106.87 6.22 106.87 10.73L106.87 10.73Q106.87 12.79 107.52 13.90Q108.17 15.00 109.36 15.00Q110.54 15.00 112.30 13.51L112.30 13.51Q112.99 14.23 113.18 15.41L113.18 15.41Q111.17 16.73 109.08 16.73Q106.99 16.73 105.95 15.22Q104.90 13.70 104.90 10.75Q104.90 7.80 106.06 6.35Q107.21 4.90 109.32 4.90L109.32 4.90Q110.98 4.90 112.01 5.68Q113.04 6.46 113.04 7.73Q113.04 9.00 111.91 9.00L111.91 9.00ZM115.22 10.68Q115.22 4.90 119.74 4.90Q124.25 4.90 124.25 10.68L124.25 10.68Q124.25 13.34 123.41 14.90L123.41 14.90Q122.45 16.73 119.74 16.73Q117.02 16.73 116.06 14.90L116.06 14.90Q115.22 13.34 115.22 10.68L115.22 10.68ZM117.19 10.62Q117.19 15.00 119.74 15.00Q122.28 15.00 122.28 10.62Q122.28 6.24 119.74 6.24Q117.19 6.24 117.19 10.62ZM126.19 15.05L127.03 14.98Q127.25 12.58 127.25 10.57Q127.25 8.57 127.06 6.60L127.06 6.60L126.17 6.53Q126.10 6.14 126.10 5.74Q126.10 5.33 126.12 5.18L126.12 5.18Q127.34 5.16 129.10 4.97L129.10 4.97L129.22 5.09Q129.19 5.23 129.07 6.50L129.07 6.50Q129.62 5.81 130.36 5.35Q131.09 4.90 131.80 4.90Q132.50 4.90 133.03 5.40Q133.56 5.90 133.56 6.72L133.56 6.72Q133.56 8.06 132.43 8.06L132.43 8.06Q131.78 8.06 131.40 7.64Q131.02 7.22 131.02 6.53L131.02 6.53Q130.97 6.50 130.85 6.50L130.85 6.50Q129.96 6.50 129.02 7.85L129.02 7.85Q129 8.52 129 10.86Q129 13.20 129.22 14.98L129.22 14.98L130.10 15.05Q130.15 15.58 130.15 15.78Q130.15 15.98 130.08 16.39L130.08 16.39Q129.41 16.37 128.11 16.37Q126.82 16.37 126.22 16.39L126.22 16.39Q126.14 16.03 126.14 15.71Q126.14 15.38 126.19 15.05L126.19 15.05ZM140.93 4.90L140.93 4.90Q144.31 4.90 144.31 10.66L144.31 10.66Q144.31 12.86 143.45 14.66L143.45 14.66Q142.97 15.62 142.01 16.18Q141.05 16.73 139.87 16.73Q138.70 16.73 137.42 16.15L137.42 16.15Q137.54 19.15 137.64 19.99L137.64 19.99L138.53 20.06L138.58 20.69Q138.58 21.17 138.50 21.41L138.50 21.41Q137.93 21.38 136.52 21.38Q135.12 21.38 134.64 21.41L134.64 21.41Q134.57 21 134.57 20.69Q134.57 20.38 134.62 20.06L134.62 20.06L135.50 19.99Q135.70 17.38 135.70 13.00Q135.70 8.62 135.50 6.60L135.50 6.60L134.62 6.53Q134.54 6.31 134.54 5.84Q134.54 5.38 134.57 5.18L134.57 5.18Q135.67 5.16 137.52 4.97L137.52 4.97L137.64 5.09Q137.54 5.78 137.52 6.46L137.52 6.46Q139.18 4.90 140.93 4.90ZM139.66 15.00L139.66 15.00Q142.27 15.00 142.27 10.34L142.27 10.34Q142.27 7.51 141.34 6.77L141.34 6.77Q140.90 6.43 140.21 6.43Q139.51 6.43 138.74 6.89Q137.98 7.34 137.45 7.99L137.45 7.99Q137.40 9.98 137.40 14.45L137.40 14.45Q138.79 15.00 139.66 15.00ZM146.59 10.68Q146.59 4.90 151.10 4.90Q155.62 4.90 155.62 10.68L155.62 10.68Q155.62 13.34 154.78 14.90L154.78 14.90Q153.82 16.73 151.10 16.73Q148.39 16.73 147.43 14.90L147.43 14.90Q146.59 13.34 146.59 10.68L146.59 10.68ZM148.56 10.62Q148.56 15.00 151.10 15.00Q153.65 15.00 153.65 10.62Q153.65 6.24 151.10 6.24Q148.56 6.24 148.56 10.62ZM157.56 15.05L158.40 14.98Q158.62 12.58 158.62 10.57Q158.62 8.57 158.42 6.60L158.42 6.60L157.54 6.53Q157.46 6.14 157.46 5.74Q157.46 5.33 157.49 5.18L157.49 5.18Q158.71 5.16 160.46 4.97L160.46 4.97L160.58 5.09Q160.56 5.23 160.44 6.50L160.44 6.50Q160.99 5.81 161.72 5.35Q162.46 4.90 163.16 4.90Q163.87 4.90 164.40 5.40Q164.93 5.90 164.93 6.72L164.93 6.72Q164.93 8.06 163.80 8.06L163.80 8.06Q163.15 8.06 162.77 7.64Q162.38 7.22 162.38 6.53L162.38 6.53Q162.34 6.50 162.22 6.50L162.22 6.50Q161.33 6.50 160.39 7.85L160.39 7.85Q160.37 8.52 160.37 10.86Q160.37 13.20 160.58 14.98L160.58 14.98L161.47 15.05Q161.52 15.58 161.52 15.78Q161.52 15.98 161.45 16.39L161.45 16.39Q160.78 16.37 159.48 16.37Q158.18 16.37 157.58 16.39L157.58 16.39Q157.51 16.03 157.51 15.71Q157.51 15.38 157.56 15.05L157.56 15.05ZM174.34 8.09L174.34 8.09L174.24 11.54Q174.24 13.18 174.43 14.74L174.43 14.74L175.32 14.81Q175.37 15.19 175.37 15.52Q175.37 15.84 175.30 16.20L175.30 16.20Q174.60 16.22 172.58 16.44L172.58 16.44Q172.42 15.98 172.32 15.31L172.32 15.31Q170.45 16.73 169.09 16.73Q167.74 16.73 166.98 15.85Q166.22 14.98 166.22 13.36Q166.22 11.74 167.24 10.80Q168.26 9.86 169.81 9.86Q171.36 9.86 172.46 10.44L172.46 10.44Q172.49 10.18 172.49 9.58L172.49 9.58Q172.49 7.80 172.00 7.02Q171.50 6.24 170.50 6.24Q169.49 6.24 169.03 6.62L169.03 6.62Q169.22 7.01 169.22 7.58Q169.22 8.16 168.85 8.58Q168.48 9.00 167.81 9.00L167.81 9.00Q166.68 9.00 166.68 7.67Q166.68 6.34 167.69 5.62Q168.70 4.90 170.52 4.90Q172.34 4.90 173.34 5.75Q174.34 6.60 174.34 8.09ZM172.37 11.95L172.37 11.95Q171.38 11.11 170.26 11.11L170.26 11.11Q168.10 11.11 168.10 13.03L168.10 13.03Q168.10 15.00 169.80 15.00L169.80 15.00Q170.42 15.00 171.13 14.68Q171.84 14.35 172.25 13.87L172.25 13.87Q172.37 12.43 172.37 11.95ZM178.18 12.48L178.18 12.48Q178.18 12.48 178.22 7.13L178.22 7.13Q178.22 6.77 178.20 6.58L178.20 6.58Q177.19 6.58 176.76 6.60L176.76 6.60Q176.62 6.22 176.62 5.84Q176.62 5.47 176.66 5.28L176.66 5.28L178.13 5.28L178.01 3.50Q178.61 3.31 179.27 3.31Q179.93 3.31 180.36 3.41L180.36 3.41L180.14 5.26Q181.46 5.23 182.81 5.11L182.81 5.11Q182.95 5.42 182.95 5.80Q182.95 6.17 182.86 6.70L182.86 6.70Q181.97 6.65 180.05 6.60L180.05 6.60Q180 7.08 180 8.02L180 8.02L180 12.89Q180 13.51 180.06 13.91Q180.12 14.30 180.37 14.63Q180.62 14.95 181.10 14.95L181.10 14.95Q182.16 14.95 183.12 14.21L183.12 14.21Q183.62 14.93 183.62 16.15L183.62 16.15Q182.30 16.73 181.33 16.73Q180.36 16.73 179.78 16.48Q179.21 16.22 178.90 15.88Q178.58 15.53 178.42 14.90L178.42 14.90Q178.18 14.02 178.18 12.48ZM188.98 11.04L188.98 11.04Q187.80 11.04 186.79 10.92L186.79 10.92Q186.84 15.00 189.50 15.00L189.50 15.00Q190.85 15.00 192.48 13.51L192.48 13.51Q193.18 14.23 193.37 15.41L193.37 15.41Q191.40 16.73 189.19 16.73Q186.98 16.73 185.90 15.20Q184.82 13.68 184.82 10.73Q184.82 7.78 186.04 6.34Q187.25 4.90 189.48 4.90L189.48 4.90Q191.14 4.90 192.22 5.90Q193.30 6.91 193.31 8.38Q193.32 9.84 193.06 10.46L193.06 10.46Q191.26 11.04 188.98 11.04ZM189.31 6.24L189.31 6.24Q187.08 6.24 186.82 9.53L186.82 9.53Q187.90 9.65 189.19 9.65Q190.49 9.65 191.21 9.41L191.21 9.41Q191.30 8.81 191.30 8.52L191.30 8.52Q191.30 7.46 190.76 6.85Q190.22 6.24 189.31 6.24ZM202.66 5.47L202.66 5.47L202.68 3.96Q202.68 2.52 202.58 1.63L202.58 1.63L201.62 1.56Q201.55 1.27 201.55 0.82Q201.55 0.36 201.58 0.22L201.58 0.22Q203.71 0.12 204.70 0L204.70 0L204.79 0.12Q204.43 3.26 204.43 8.22Q204.43 13.18 204.65 14.76L204.65 14.76L205.54 14.81Q205.58 15.34 205.58 15.59Q205.58 15.84 205.51 16.20L205.51 16.20Q204.58 16.25 202.90 16.44L202.90 16.44Q202.70 16.06 202.61 15.22L202.61 15.22Q200.95 16.73 199.26 16.73Q197.57 16.73 196.67 15.19Q195.77 13.66 195.77 10.84Q195.77 8.02 196.91 6.46Q198.05 4.90 200.18 4.90L200.18 4.90Q201.38 4.90 202.66 5.47ZM200.21 6.31L200.21 6.31Q197.81 6.31 197.81 11.09L197.81 11.09Q197.81 12.89 198.35 13.88Q198.89 14.88 199.85 14.88L199.85 14.88Q200.50 14.88 201.28 14.47Q202.06 14.06 202.63 13.44L202.63 13.44Q202.68 10.46 202.68 7.01L202.68 7.01Q201.14 6.31 200.21 6.31Z" transform="translate(51, 5.799)"></path></svg>